<?xml version="1.0" encoding="UTF-8"?>
<svg xmlns="http://www.w3.org/2000/svg" xmlns:xlink="http://www.w3.org/1999/xlink" width="24px" height="24px" viewBox="0 0 24 24" version="1.1">
<g id="surface1">
<path style=" stroke:none;fill-rule:nonzero;fill:rgb(100%,100%,100%);fill-opacity:1;" d="M 24 12 C 24 5.371094 18.628906 0 12 0 C 5.371094 0 0 5.371094 0 12 C 0 18.628906 5.371094 24 12 24 C 18.628906 24 24 18.628906 24 12 Z M 24 12 "/>
<path style=" stroke:none;fill-rule:nonzero;fill:rgb(0%,0%,0%);fill-opacity:1;" d="M 16.175781 4.800781 L 18.382812 4.800781 L 13.539062 10.910156 L 19.199219 19.199219 L 14.757812 19.199219 L 11.277344 14.164062 L 7.296875 19.199219 L 5.089844 19.199219 L 10.222656 12.664062 L 4.800781 4.800781 L 9.355469 4.800781 L 12.496094 9.402344 Z M 15.40625 17.765625 L 16.628906 17.765625 L 8.710938 6.179688 L 7.394531 6.179688 Z M 15.40625 17.765625 "/>
</g>
</svg>
